<svg version="1.1" xmlns="http://www.w3.org/2000/svg" viewBox="0 0 1230 720" width="1230" height="720"><!-- svg-source:excalidraw --><metadata></metadata><defs><style class="style-fonts">
      </style></defs><rect x="0" y="0" width="1230" height="720" fill="#fffef9"></rect><g stroke-linecap="round" transform="translate(15 15) rotate(0 600 345)"><path d="M0 0 L1200 0 L1200 690 L0 690" stroke="none" stroke-width="0" fill="#fffef9"></path><path d="M0 0 C334.52 0, 669.04 0, 1200 0 M0 0 C433.01 0, 866.02 0, 1200 0 M1200 0 C1200 193.21, 1200 386.43, 1200 690 M1200 0 C1200 248.02, 1200 496.05, 1200 690 M1200 690 C742.15 690, 284.31 690, 0 690 M1200 690 C860.32 690, 520.65 690, 0 690 M0 690 C0 534.71, 0 379.42, 0 0 M0 690 C0 424.01, 0 158.01, 0 0" stroke="transparent" stroke-width="2" fill="none"></path></g><g transform="translate(57 43) rotate(0 320.17498779296875 25)"><text x="0" y="35.80078125" font-family="Helvetica, Segoe UI Emoji" font-size="40px" fill="#263238" text-anchor="start" style="white-space: pre;" direction="ltr" dominant-baseline="alphabetic">How do we earn trust in production?</text></g><g transform="translate(59 105) rotate(0 330.010009765625 15.625)"><text x="0" y="22.37548828125" font-family="Helvetica, Segoe UI Emoji" font-size="25px" fill="#57646b" text-anchor="start" style="white-space: pre;" direction="ltr" dominant-baseline="alphabetic">Test versions, control actions and learn from real outcomes.</text></g><g stroke-linecap="round" transform="translate(80 195) rotate(0 145 57)"><path d="M28.5 0 C77.69 -3.59, 134.91 -4.26, 261.5 0 C282.39 -3.6, 290.11 6.02, 290 28.5 C291.8 48.84, 287.59 70.01, 290 85.5 C288.96 105.95, 283.71 115.52, 261.5 114 C186.94 113.65, 114.47 109.09, 28.5 114 C11.23 112.4, 0.78 108.6, 0 85.5 C2.61 60.76, -2.83 44.39, 0 28.5 C3.74 12.37, 13.05 3.78, 28.5 0" stroke="none" stroke-width="0" fill="#ffffff"></path><path d="M28.5 0 C74.11 -0.23, 125.38 1.59, 261.5 0 M28.5 0 C107.02 2.13, 185.71 1.84, 261.5 0 M261.5 0 C279.18 2.24, 288.4 8.6, 290 28.5 M261.5 0 C278.33 -1.97, 291.39 8.58, 290 28.5 M290 28.5 C290.78 44.12, 289.8 59.9, 290 85.5 M290 28.5 C288.97 41.48, 290.84 54.72, 290 85.5 M290 85.5 C290.97 104.73, 279.04 114.42, 261.5 114 M290 85.5 C289.47 101.63, 281.5 114.97, 261.5 114 M261.5 114 C187.18 114.64, 111.2 114.04, 28.5 114 M261.5 114 C201.67 111.59, 139.16 111.88, 28.5 114 M28.5 114 C11.64 114.42, -1.64 104.89, 0 85.5 M28.5 114 C11.57 113.2, 2.53 106.9, 0 85.5 M0 85.5 C0.05 69.23, -2.12 56.59, 0 28.5 M0 85.5 C0.65 65.69, 0.38 46.74, 0 28.5 M0 28.5 C1.24 7.77, 10.69 1.13, 28.5 0 M0 28.5 C0.69 8.73, 11.18 -1.14, 28.5 0" stroke="#263238" stroke-width="2" fill="none"></path></g><g transform="translate(112.98999786376953 222.1) rotate(0 112.01000213623047 29.89999999999999)"><text x="112.01000213623047" y="21.9705078125" font-family="Helvetica, Segoe UI Emoji" font-size="26px" fill="#263238" text-anchor="middle" style="white-space: pre;" direction="ltr" dominant-baseline="alphabetic">1  Test workflows</text><text x="112.01000213623047" y="51.870507812499994" font-family="Helvetica, Segoe UI Emoji" font-size="26px" fill="#263238" text-anchor="middle" style="white-space: pre;" direction="ltr" dominant-baseline="alphabetic">on controlled cases</text></g><g stroke-linecap="round" transform="translate(470 195) rotate(0 145 57)"><path d="M28.5 0 C88.95 2.24, 144.63 -4.2, 261.5 0 C281.44 -2.59, 286.5 5.97, 290 28.5 C286.5 40.76, 288.91 60.22, 290 85.5 C290.48 105.62, 282.14 117.31, 261.5 114 C199 112.96, 143.47 114.17, 28.5 114 C11.93 113.33, -2.91 107.22, 0 85.5 C-2.43 71.04, 4.1 61.82, 0 28.5 C2.15 7.41, 8.12 -0.87, 28.5 0" stroke="none" stroke-width="0" fill="#ffffff"></path><path d="M28.5 0 C77.12 0.64, 122.93 2.67, 261.5 0 M28.5 0 C78.46 0.87, 126.88 -0.24, 261.5 0 M261.5 0 C280.05 0.41, 292 8.14, 290 28.5 M261.5 0 C281.45 1.6, 292.6 7.87, 290 28.5 M290 28.5 C290.58 45.43, 289.06 60.93, 290 85.5 M290 28.5 C289.81 41.74, 290.11 54.03, 290 85.5 M290 85.5 C289.22 105.23, 282.14 114.77, 261.5 114 M290 85.5 C290.24 104.58, 279.79 113.1, 261.5 114 M261.5 114 C182.52 116.5, 107.1 115.93, 28.5 114 M261.5 114 C196.72 111.13, 132.59 110.74, 28.5 114 M28.5 114 C11.79 111.56, 0.64 103.05, 0 85.5 M28.5 114 C10.98 116.05, 2.35 104.15, 0 85.5 M0 85.5 C1.85 66.43, 2.16 47.28, 0 28.5 M0 85.5 C-0.71 72.29, 0.55 58.74, 0 28.5 M0 28.5 C-0.72 7.77, 11.25 1.99, 28.5 0 M0 28.5 C2.79 9.02, 9.57 -1.17, 28.5 0" stroke="#263238" stroke-width="2" fill="none"></path></g><g transform="translate(499.73999786376953 222.1) rotate(0 115.26000213623047 29.89999999999999)"><text x="115.26000213623047" y="21.9705078125" font-family="Helvetica, Segoe UI Emoji" font-size="26px" fill="#263238" text-anchor="middle" style="white-space: pre;" direction="ltr" dominant-baseline="alphabetic">2  Review release</text><text x="115.26000213623047" y="51.870507812499994" font-family="Helvetica, Segoe UI Emoji" font-size="26px" fill="#263238" text-anchor="middle" style="white-space: pre;" direction="ltr" dominant-baseline="alphabetic">evidence + blockers</text></g><g stroke-linecap="round" transform="translate(860 195) rotate(0 145 57)"><path d="M28.5 0 C93.28 1.15, 154.34 2.8, 261.5 0 C280.48 -1.58, 291.08 5.92, 290 28.5 C289.4 52.28, 290.22 73.24, 290 85.5 C292 105.29, 280.57 110.9, 261.5 114 C171.39 119.2, 79.26 119.26, 28.5 114 C12.63 114.26, 1.6 105.84, 0 85.5 C-1.61 69.93, 0.5 56.45, 0 28.5 C0.55 10.64, 11.39 2.69, 28.5 0" stroke="none" stroke-width="0" fill="#fff4e6"></path><path d="M28.5 0 C75.92 0.81, 124.71 -1.18, 261.5 0 M28.5 0 C94.38 -0.38, 159.13 -0.22, 261.5 0 M261.5 0 C280.93 -1.43, 290.59 7.67, 290 28.5 M261.5 0 C278.83 -0.57, 288.05 7.16, 290 28.5 M290 28.5 C290.39 46.74, 288.31 61.96, 290 85.5 M290 28.5 C290.64 39.5, 289.39 50.85, 290 85.5 M290 85.5 C292.46 105.73, 280.25 115.12, 261.5 114 M290 85.5 C291 101.79, 278.09 111.24, 261.5 114 M261.5 114 C177.87 114.14, 98.77 117.81, 28.5 114 M261.5 114 C193.87 115.6, 126.03 116.64, 28.5 114 M28.5 114 C11.93 113.7, -2.08 106.21, 0 85.5 M28.5 114 C10.39 113.16, 2.18 107.14, 0 85.5 M0 85.5 C-1.36 75.03, 1.43 60.77, 0 28.5 M0 85.5 C-0.99 67.48, -0.71 50.43, 0 28.5 M0 28.5 C2.33 7.76, 11.82 -2.14, 28.5 0 M0 28.5 C-0.86 9.31, 7.97 -1.21, 28.5 0" stroke="#c0640a" stroke-width="2" fill="none"></path></g><g transform="translate(897.3450012207031 222.1) rotate(0 107.65499877929688 29.89999999999999)"><text x="107.65499877929688" y="21.9705078125" font-family="Helvetica, Segoe UI Emoji" font-size="26px" fill="#c0640a" text-anchor="middle" style="white-space: pre;" direction="ltr" dominant-baseline="alphabetic">3  Enforce runtime</text><text x="107.65499877929688" y="51.870507812499994" font-family="Helvetica, Segoe UI Emoji" font-size="26px" fill="#c0640a" text-anchor="middle" style="white-space: pre;" direction="ltr" dominant-baseline="alphabetic">action permissions</text></g><g stroke-linecap="round" transform="translate(860 435) rotate(0 145 57)"><path d="M28.5 0 C97.61 0.05, 164.06 2.86, 261.5 0 C279.52 -0.57, 287.47 5.87, 290 28.5 C289.97 44.2, 289.2 63.45, 290 85.5 C293.52 104.96, 279 112.69, 261.5 114 C183.44 110.44, 108.26 109.34, 28.5 114 C13.34 115.19, -2.09 104.46, 0 85.5 C-0.8 68.82, -3.11 51.07, 0 28.5 C-1.04 5.68, 6.47 -1.95, 28.5 0" stroke="none" stroke-width="0" fill="#ffffff"></path><path d="M28.5 0 C74.71 1.68, 122.26 -0.1, 261.5 0 M28.5 0 C110.31 3.28, 193.49 2.62, 261.5 0 M261.5 0 C281.81 1.73, 289.19 7.21, 290 28.5 M261.5 0 C281.95 -2.74, 289.26 12.2, 290 28.5 M290 28.5 C288.77 48.05, 291.14 63, 290 85.5 M290 28.5 C291.48 51.16, 291.16 72.97, 290 85.5 M290 85.5 C290.71 106.23, 278.35 115.47, 261.5 114 M290 85.5 C291.76 104.74, 282.13 115.13, 261.5 114 M261.5 114 C177.44 116, 90.44 115.47, 28.5 114 M261.5 114 C188.92 117.25, 117.35 115.5, 28.5 114 M28.5 114 C7.07 115.84, 0.2 104.37, 0 85.5 M28.5 114 C9.81 116.01, 2 104.39, 0 85.5 M0 85.5 C0.44 67.23, 0.7 51.46, 0 28.5 M0 85.5 C0.16 65.17, -0.54 42.13, 0 28.5 M0 28.5 C0.37 7.76, 7.38 -1.28, 28.5 0 M0 28.5 C1.24 9.59, 12.11 -1.24, 28.5 0" stroke="#263238" stroke-width="2" fill="none"></path></g><g transform="translate(881.4449996948242 462.1) rotate(0 123.55500030517578 29.900000000000006)"><text x="123.55500030517578" y="21.9705078125" font-family="Helvetica, Segoe UI Emoji" font-size="26px" fill="#263238" text-anchor="middle" style="white-space: pre;" direction="ltr" dominant-baseline="alphabetic">4  Observe outcomes</text><text x="123.55500030517578" y="51.870507812499994" font-family="Helvetica, Segoe UI Emoji" font-size="26px" fill="#263238" text-anchor="middle" style="white-space: pre;" direction="ltr" dominant-baseline="alphabetic">+ evaluate samples</text></g><g stroke-linecap="round" transform="translate(470 435) rotate(0 145 57)"><path d="M28.5 0 C101.93 -2.2, 173.78 -5.15, 261.5 0 C278.56 0.43, 292.06 5.82, 290 28.5 C292.87 44.31, 290.51 53.67, 290 85.5 C286.83 104.63, 277.44 114.48, 261.5 114 C202.43 109.75, 137.25 114.43, 28.5 114 C5.84 116.13, 2.42 103.09, 0 85.5 C2.36 67.71, 3.82 45.7, 0 28.5 C-2.63 8.92, 9.74 1.6, 28.5 0" stroke="none" stroke-width="0" fill="#ffffff"></path><path d="M28.5 0 C77.73 -2.38, 124.04 0.28, 261.5 0 M28.5 0 C81.75 -0.09, 134.66 0.54, 261.5 0 M261.5 0 C282.69 -0.11, 287.79 11.74, 290 28.5 M261.5 0 C279.32 0.83, 290.47 11.49, 290 28.5 M290 28.5 C288.57 49.36, 290.4 64.03, 290 85.5 M290 28.5 C289.81 51.41, 290.43 72.28, 290 85.5 M290 85.5 C288.95 106.74, 281.46 115.82, 261.5 114 M290 85.5 C292.53 101.94, 280.43 113.27, 261.5 114 M261.5 114 C172.79 117.86, 82.11 117.35, 28.5 114 M261.5 114 C186.08 116.8, 110.78 116.48, 28.5 114 M28.5 114 C7.21 112.98, 2.48 102.53, 0 85.5 M28.5 114 C9.22 113.11, 1.83 101.63, 0 85.5 M0 85.5 C0.81 64.43, -1.46 42.16, 0 28.5 M0 85.5 C1.3 71.76, -0.38 56.63, 0 28.5 M0 28.5 C-1.58 7.75, 7.94 -0.41, 28.5 0 M0 28.5 C-2.41 9.88, 10.5 -1.27, 28.5 0" stroke="#263238" stroke-width="2" fill="none"></path></g><g transform="translate(498.6600036621094 462.1) rotate(0 116.33999633789062 29.900000000000006)"><text x="116.33999633789062" y="21.9705078125" font-family="Helvetica, Segoe UI Emoji" font-size="26px" fill="#263238" text-anchor="middle" style="white-space: pre;" direction="ltr" dominant-baseline="alphabetic">5  Review failures</text><text x="116.33999633789062" y="51.870507812499994" font-family="Helvetica, Segoe UI Emoji" font-size="26px" fill="#263238" text-anchor="middle" style="white-space: pre;" direction="ltr" dominant-baseline="alphabetic">and evaluator errors</text></g><g stroke-linecap="round" transform="translate(80 435) rotate(0 145 57)"><path d="M28.5 0 C106.26 -3.29, 176.57 1.85, 261.5 0 C277.6 1.44, 288.44 5.77, 290 28.5 C287.58 47.63, 291.83 66.68, 290 85.5 C288.35 104.3, 284.07 116.27, 261.5 114 C167.89 115.99, 73.04 112.58, 28.5 114 C6.54 117.06, -1.27 101.71, 0 85.5 C3.17 66.59, 0.21 40.33, 0 28.5 C3.97 12.15, 13.01 -3.04, 28.5 0" stroke="none" stroke-width="0" fill="#ebfbee"></path><path d="M28.5 0 C76.53 -1.51, 125.81 1.36, 261.5 0 M28.5 0 C97.67 -1.35, 166.91 -1.55, 261.5 0 M261.5 0 C278.57 -1.95, 291.39 11.28, 290 28.5 M261.5 0 C282.45 -1.34, 291.67 10.78, 290 28.5 M290 28.5 C288.38 50.67, 289.66 70.06, 290 85.5 M290 28.5 C290.65 49.17, 289.7 71.6, 290 85.5 M290 85.5 C292.19 102.24, 279.56 116.17, 261.5 114 M290 85.5 C287.54 104.9, 278.72 111.4, 261.5 114 M261.5 114 C168.14 115.5, 73.79 115, 28.5 114 M261.5 114 C183.23 116.34, 102.1 115.34, 28.5 114 M28.5 114 C7.35 115.12, -0.24 105.69, 0 85.5 M28.5 114 C8.63 115.96, 1.65 104.63, 0 85.5 M0 85.5 C-2.4 68.03, -2.18 55.65, 0 28.5 M0 85.5 C1.02 66.95, 0.87 48.33, 0 28.5 M0 28.5 C1.46 7.75, 8.5 0.45, 28.5 0 M0 28.5 C-0.31 10.16, 8.89 -1.31, 28.5 0" stroke="#2b8a3e" stroke-width="2" fill="none"></path></g><g transform="translate(126.7300033569336 462.1) rotate(0 98.2699966430664 29.900000000000006)"><text x="98.2699966430664" y="21.9705078125" font-family="Helvetica, Segoe UI Emoji" font-size="26px" fill="#2b8a3e" text-anchor="middle" style="white-space: pre;" direction="ltr" dominant-baseline="alphabetic">6  Fix + add</text><text x="98.2699966430664" y="51.870507812499994" font-family="Helvetica, Segoe UI Emoji" font-size="26px" fill="#2b8a3e" text-anchor="middle" style="white-space: pre;" direction="ltr" dominant-baseline="alphabetic">regression cases</text></g><g stroke-linecap="round"><g transform="translate(377.5 252) rotate(0 42.5 0)"><path d="M0 0 C16.55 2.34, 34.38 1.15, 85 0 M0 0 C32.48 -1.31, 63.25 -0.17, 85 0" stroke="#263238" stroke-width="2" fill="none"></path></g><g transform="translate(377.5 252) rotate(0 42.5 0)"><path d="M61.38 8.2 C65.47 8.13, 70.72 5.37, 85 0 M61.38 8.2 C71.03 4.51, 79.15 2.51, 85 0" stroke="#263238" stroke-width="2" fill="none"></path></g><g transform="translate(377.5 252) rotate(0 42.5 0)"><path d="M61.64 -8.9 C65.66 -5.48, 70.85 -4.74, 85 0 M61.64 -8.9 C71.23 -6.26, 79.25 -1.93, 85 0" stroke="#263238" stroke-width="2" fill="none"></path></g></g><mask></mask><g stroke-linecap="round"><g transform="translate(767.5 252) rotate(0 42.5 0)"><path d="M0 0 C15.29 0.08, 36.22 -0.9, 85 0 M0 0 C20.71 0.24, 40.13 0.51, 85 0" stroke="#263238" stroke-width="2" fill="none"></path></g><g transform="translate(767.5 252) rotate(0 42.5 0)"><path d="M61.58 8.74 C64.47 7.23, 72.5 4.57, 85 0 M61.58 8.74 C67.34 6.51, 71.96 4.65, 85 0" stroke="#263238" stroke-width="2" fill="none"></path></g><g transform="translate(767.5 252) rotate(0 42.5 0)"><path d="M61.44 -8.36 C64.38 -6.37, 72.43 -5.55, 85 0 M61.44 -8.36 C67.3 -6.45, 71.95 -4.18, 85 0" stroke="#263238" stroke-width="2" fill="none"></path></g></g><mask></mask><g stroke-linecap="round"><g transform="translate(1156.5 252) rotate(0 17.25 120)"><path d="M0 0 C8.12 -0.57, 13.04 -1.32, 34.5 0 M0 0 C10.09 -0.05, 21.5 -0.64, 34.5 0 M34.5 0 C32.61 78.63, 30.99 157.2, 34.5 240 M34.5 0 C32.33 65.44, 31.68 130.19, 34.5 240 M34.5 240 C27.06 239.15, 16.71 238.03, 1 240 M34.5 240 C24.65 239.1, 16.15 239.03, 1 240" stroke="#263238" stroke-width="2" fill="none"></path></g><g transform="translate(1156.5 252) rotate(0 17.25 120)"><path d="M16.44 233.5 C14.12 234.2, 9.34 234.95, 1 240 M16.44 233.5 C11.05 235.53, 6.65 237.13, 1 240" stroke="#263238" stroke-width="2" fill="none"></path></g><g transform="translate(1156.5 252) rotate(0 17.25 120)"><path d="M17 244.94 C14.54 243.3, 9.64 241.72, 1 240 M17 244.94 C11.38 243.38, 6.8 241.39, 1 240" stroke="#263238" stroke-width="2" fill="none"></path></g></g><mask></mask><g stroke-linecap="round"><g transform="translate(852.5 492) rotate(0 -42.5 0)"><path d="M0 0 C-17.55 -1.17, -33.95 2.69, -85 0 M0 0 C-32.25 0.84, -64.95 1.6, -85 0" stroke="#263238" stroke-width="2" fill="none"></path></g><g transform="translate(852.5 492) rotate(0 -42.5 0)"><path d="M-61.18 -7.58 C-66.18 -7.56, -70.16 -2.5, -85 0 M-61.18 -7.58 C-69.81 -4.3, -78.9 -0.69, -85 0" stroke="#263238" stroke-width="2" fill="none"></path></g><g transform="translate(852.5 492) rotate(0 -42.5 0)"><path d="M-61.88 9.51 C-66.81 6.03, -70.65 7.6, -85 0 M-61.88 9.51 C-70.35 6.18, -79.18 3.2, -85 0" stroke="#263238" stroke-width="2" fill="none"></path></g></g><mask></mask><g stroke-linecap="round"><g transform="translate(462.5 492) rotate(0 -42.5 0)"><path d="M0 0 C-18.81 1.34, -36.5 1.03, -85 0 M0 0 C-22.25 -0.23, -44.54 -0.33, -85 0" stroke="#263238" stroke-width="2" fill="none"></path></g><g transform="translate(462.5 492) rotate(0 -42.5 0)"><path d="M-61.56 -8.69 C-67.61 -5.67, -72.69 -4.18, -85 0 M-61.56 -8.69 C-67.83 -6.21, -74.2 -4.06, -85 0" stroke="#263238" stroke-width="2" fill="none"></path></g><g transform="translate(462.5 492) rotate(0 -42.5 0)"><path d="M-61.46 8.41 C-67.63 7.94, -72.73 5.93, -85 0 M-61.46 8.41 C-67.89 6.48, -74.29 4.21, -85 0" stroke="#263238" stroke-width="2" fill="none"></path></g></g><mask></mask><g stroke-linecap="round"><g transform="translate(73.5 492) rotate(0 -17.75 -120)"><path d="M0 0 C-5.55 -0.09, -14.42 -0.18, -35.5 0 M0 0 C-10.72 0.64, -23.26 -0.33, -35.5 0 M-35.5 0 C-38.03 -57.52, -35.45 -113.73, -35.5 -240 M-35.5 0 C-34.81 -95.15, -34.83 -190.97, -35.5 -240 M-35.5 -240 C-24.87 -241.29, -13.02 -241.86, -1 -240 M-35.5 -240 C-22.87 -240.44, -7.39 -239.78, -1 -240" stroke="#2b8a3e" stroke-width="2" fill="none"></path></g><g transform="translate(73.5 492) rotate(0 -17.75 -120)"><path d="M-17.2 -234.07 C-12.6 -234.96, -10.56 -236.24, -1 -240 M-17.2 -234.07 C-11.12 -235.48, -6.42 -238.19, -1 -240" stroke="#2b8a3e" stroke-width="2" fill="none"></path></g><g transform="translate(73.5 492) rotate(0 -17.75 -120)"><path d="M-17.22 -245.87 C-12.53 -244.34, -10.48 -243.22, -1 -240 M-17.22 -245.87 C-11.03 -243.38, -6.32 -242.2, -1 -240" stroke="#2b8a3e" stroke-width="2" fill="none"></path></g></g><mask></mask><g transform="translate(825 338) rotate(0 162.0800018310547 30)"><text x="0" y="21.48046875" font-family="Helvetica, Segoe UI Emoji" font-size="24px" fill="#c0640a" text-anchor="start" style="white-space: pre;" direction="ltr" dominant-baseline="alphabetic">Before a refund:</text><text x="0" y="51.48046875" font-family="Helvetica, Segoe UI Emoji" font-size="24px" fill="#c0640a" text-anchor="start" style="white-space: pre;" direction="ltr" dominant-baseline="alphabetic">allow · block · require approval</text></g><g transform="translate(80 596) rotate(0 462.5150146484375 16.25)"><text x="0" y="23.2705078125" font-family="Helvetica, Segoe UI Emoji" font-size="26px" fill="#263238" text-anchor="start" style="white-space: pre;" direction="ltr" dominant-baseline="alphabetic">An evaluation measures behavior. A high score does not grant permission to act.</text></g><g transform="translate(59 649) rotate(0 470.4800109863281 14.375)"><text x="0" y="20.58544921875" font-family="Helvetica, Segoe UI Emoji" font-size="23px" fill="#57646b" text-anchor="start" style="white-space: pre;" direction="ltr" dominant-baseline="alphabetic">Conceptual lifecycle. Offline tests continue after release; online results feed the next version.</text></g></svg>